<svg width="16" height="16" viewBox="0 0 16 16" fill="none" xmlns="http://www.w3.org/2000/svg">
<g clip-path="url(#clip0_256_3708)">
<g clip-path="url(#clip1_256_3708)">
<g clip-path="url(#clip2_256_3708)">
<path d="M0 0H16V16H0V0Z" fill="white"/>
<path d="M5.28972 7.62578C5.26412 8.08039 5.60651 8.46958 6.05129 8.49574H6.09929C6.54727 8.49574 6.90885 8.12617 6.90565 7.6683C6.90565 7.21043 6.54407 6.84086 6.09609 6.84413C5.6673 6.84413 5.31212 7.18753 5.28972 7.62578Z" fill="#0033AD"/>
<path d="M2.27546 7.4132C2.13146 7.40339 2.00667 7.51786 2.00027 7.66503C1.99387 7.8122 2.10266 7.93976 2.24666 7.9463C2.39065 7.95611 2.51225 7.84164 2.52185 7.69447C2.53144 7.54729 2.41945 7.42301 2.27546 7.4132Z" fill="#0033AD"/>
<path d="M5.23852 2.8312C5.36652 2.76579 5.41772 2.60226 5.35372 2.47144C5.28972 2.34062 5.12973 2.28829 5.00173 2.3537C4.87374 2.41911 4.82254 2.57937 4.88654 2.71019C4.95054 2.84428 5.10733 2.89988 5.23852 2.8312Z" fill="#0033AD"/>
<path d="M6.05769 4.29312C6.25608 4.19173 6.33607 3.94317 6.23688 3.7404C6.13768 3.53763 5.89449 3.45587 5.6961 3.55725C5.49771 3.65864 5.41772 3.9072 5.51691 4.10997C5.61611 4.31274 5.8593 4.39451 6.05769 4.29312Z" fill="#0033AD"/>
<path d="M3.29941 5.29717C3.453 5.39856 3.65779 5.35604 3.76019 5.19906C3.85939 5.04207 3.81779 4.83276 3.66419 4.7281C3.5106 4.62671 3.30581 4.66923 3.20341 4.82622C3.10102 4.9832 3.14582 5.19579 3.29941 5.29717Z" fill="#0033AD"/>
<path d="M3.78899 7.26603C3.565 7.25294 3.37621 7.42628 3.36341 7.65522C3.35061 7.88416 3.5202 8.07712 3.74419 8.0902C3.96818 8.10328 4.15697 7.92994 4.16977 7.70101C4.18257 7.47534 4.01298 7.27911 3.78899 7.26603Z" fill="#0033AD"/>
<path d="M3.34421 10.0362C3.18102 10.1212 3.11382 10.324 3.19701 10.494C3.28021 10.6608 3.4786 10.7295 3.64499 10.6445C3.80819 10.5594 3.87538 10.3567 3.79219 10.1866C3.70899 10.0198 3.5074 9.95113 3.34421 10.0362Z" fill="#0033AD"/>
<path d="M4.91214 6.41242C5.13293 6.55959 5.42732 6.49745 5.56811 6.27179C5.7121 6.04612 5.6513 5.74523 5.43051 5.60133C5.20972 5.45416 4.91534 5.5163 4.77454 5.74196C4.63055 5.96436 4.69135 6.26525 4.91214 6.41242Z" fill="#0033AD"/>
<path d="M9.88791 4.26042C10.0735 4.3847 10.3263 4.33237 10.4479 4.14268C10.5695 3.95299 10.5183 3.69462 10.3327 3.57034C10.1471 3.44606 9.89431 3.49838 9.77272 3.68807C9.64793 3.88104 9.69912 4.13614 9.88791 4.26042Z" fill="#0033AD"/>
<path d="M10.7135 2.80503C10.8351 2.8868 10.9951 2.85082 11.0751 2.72654C11.1551 2.60226 11.1199 2.43873 10.9983 2.35697C10.8767 2.27521 10.7167 2.31118 10.6367 2.43219C10.5599 2.55647 10.5951 2.72327 10.7135 2.80503Z" fill="#0033AD"/>
<path d="M9.94871 6.83759C9.50393 6.81142 9.11995 7.16137 9.09755 7.61597C9.07195 8.07058 9.41434 8.46304 9.85912 8.48593H9.90391C10.3487 8.48593 10.7103 8.11636 10.7103 7.65849C10.7135 7.22351 10.3775 6.86048 9.94871 6.83759Z" fill="#0033AD"/>
<path d="M6.32327 6.35355C6.46087 6.63155 6.73926 6.80815 7.04644 6.80815C7.49122 6.80815 7.85281 6.43858 7.85281 5.98071C7.85281 5.85316 7.82401 5.72561 7.76641 5.60787C7.56482 5.19906 7.07844 5.03553 6.68166 5.24157C6.28168 5.45089 6.12168 5.94801 6.32327 6.35355Z" fill="#0033AD"/>
<path d="M12.6558 5.29717C12.819 5.21214 12.883 5.00609 12.7998 4.8393C12.7166 4.6725 12.515 4.60709 12.3518 4.69212C12.1886 4.77716 12.1246 4.97993 12.2046 5.14673C12.291 5.31352 12.4894 5.38221 12.6558 5.29717Z" fill="#0033AD"/>
<path d="M10.6079 5.55881C10.3743 5.67982 10.2783 5.9709 10.3967 6.20965C10.5151 6.4484 10.7999 6.54651 11.0335 6.4255C11.2671 6.30449 11.363 6.01342 11.2447 5.77467C11.1263 5.53592 10.8415 5.44107 10.6079 5.55881Z" fill="#0033AD"/>
<path d="M7.968 2.68075C8.15039 2.69056 8.30719 2.54666 8.31999 2.36024C8.33278 2.17382 8.18879 2.01357 8.0064 2.00048C7.82401 1.99067 7.66721 2.1313 7.65442 2.31772C7.64482 2.50741 7.78561 2.66767 7.968 2.68075Z" fill="#0033AD"/>
<path d="M7.9648 4.8164C8.22719 4.83276 8.45118 4.62671 8.46398 4.35853C8.47998 4.09035 8.27839 3.86141 8.016 3.84833C7.75361 3.83198 7.52962 4.03802 7.51682 4.3062C7.50402 4.57439 7.70241 4.80332 7.9648 4.8164Z" fill="#0033AD"/>
<path d="M5.39212 9.77452C5.62571 9.65351 5.7217 9.36243 5.60331 9.12368C5.48491 8.88494 5.20013 8.78682 4.96654 8.90783C4.73295 9.02884 4.63695 9.31992 4.75535 9.55866C4.87374 9.79741 5.15853 9.89553 5.39212 9.77452Z" fill="#0033AD"/>
<path d="M8.27199 5.52611C8.0288 5.90876 8.13119 6.41896 8.50558 6.66752C8.87996 6.91608 9.37914 6.81142 9.62233 6.42877C9.86552 6.04612 9.76312 5.53592 9.38874 5.28736C9.25754 5.19906 9.10395 5.15327 8.94716 5.15327C8.67517 5.15327 8.42238 5.2939 8.27199 5.52611Z" fill="#0033AD"/>
<path d="M9.67673 8.97978C9.47513 8.57097 8.98876 8.40744 8.59197 8.61348C8.19199 8.81953 8.032 9.31665 8.23359 9.72219C8.43518 10.131 8.92156 10.2945 9.31834 10.0885C9.71512 9.88572 9.87831 9.39514 9.67992 8.98632C9.67992 8.98414 9.67886 8.98196 9.67673 8.97978Z" fill="#0033AD"/>
<path d="M11.0879 8.92091C10.8671 8.77374 10.5727 8.83588 10.4319 9.06154C10.2879 9.28721 10.3487 9.5881 10.5695 9.732C10.7903 9.87918 11.0847 9.81704 11.2255 9.59137C11.3694 9.36897 11.3087 9.06809 11.0879 8.92091Z" fill="#0033AD"/>
<path d="M12.6366 7.68138C12.6494 7.45245 12.4798 7.25949 12.2558 7.2464C12.0318 7.23332 11.843 7.40666 11.8302 7.6356C11.8174 7.86453 11.987 8.05749 12.211 8.07058C12.4318 8.08366 12.6238 7.90705 12.6366 7.68138Z" fill="#0033AD"/>
<path d="M13.7533 7.38704C13.6093 7.37723 13.4846 7.49169 13.4782 7.63887C13.4718 7.78604 13.5806 7.91359 13.7245 7.92013C13.8685 7.92994 13.9901 7.81547 13.9997 7.6683C14.0061 7.52113 13.8973 7.39685 13.7533 7.38704Z" fill="#0033AD"/>
<path d="M12.7006 10.0362C12.547 9.93477 12.3422 9.97729 12.2398 10.1343C12.1406 10.2913 12.1822 10.5006 12.3358 10.6052C12.4894 10.7066 12.6942 10.6641 12.7966 10.5071C12.899 10.3501 12.8542 10.1375 12.7006 10.0362Z" fill="#0033AD"/>
<path d="M5.28332 12.5283C5.16173 12.4465 5.00173 12.4825 4.92174 12.6035C4.84174 12.7278 4.87694 12.8913 4.99533 12.9731C5.11693 13.0549 5.27692 13.0189 5.35692 12.8979C5.44011 12.7769 5.40492 12.6101 5.28332 12.5283Z" fill="#0033AD"/>
<path d="M10.7615 12.5021C10.6335 12.5675 10.5823 12.7311 10.6463 12.8619C10.7103 12.9927 10.8703 13.045 10.9983 12.9796C11.1263 12.9142 11.1775 12.754 11.1135 12.6231C11.0495 12.4891 10.8927 12.4335 10.7615 12.5021Z" fill="#0033AD"/>
<path d="M7.72801 9.80722C7.9712 9.42457 7.86881 8.91437 7.49442 8.66254C7.12004 8.41398 6.62086 8.51864 6.37447 8.90129C6.12808 9.28394 6.23368 9.79414 6.60806 10.046C6.73926 10.1343 6.89285 10.1801 7.04964 10.1801C7.32483 10.1833 7.57762 10.0427 7.72801 9.80722Z" fill="#0033AD"/>
<path d="M6.11208 11.0729C5.92649 10.9486 5.6737 11.001 5.55211 11.1907C5.43051 11.3803 5.48171 11.6387 5.6673 11.763C5.8529 11.8873 6.10568 11.8349 6.22728 11.6453C6.35207 11.4556 6.30088 11.1972 6.11208 11.0729Z" fill="#0033AD"/>
<path d="M7.9968 12.6526C7.81441 12.6428 7.65762 12.7867 7.64482 12.9731C7.63202 13.1595 7.77601 13.3198 7.9584 13.3328C8.14079 13.3427 8.29759 13.202 8.31039 13.0156C8.31999 12.8259 8.17919 12.6657 7.9968 12.6526Z" fill="#0033AD"/>
<path d="M8 10.5169C7.73761 10.5006 7.51362 10.7066 7.50082 10.9748C7.48482 11.243 7.68641 11.4719 7.9488 11.485C8.21119 11.4981 8.43518 11.2953 8.44798 11.0271C8.46398 10.7622 8.26239 10.53 8 10.5169Z" fill="#0033AD"/>
<path d="M9.94231 11.0402C9.74392 11.1449 9.66393 11.3934 9.76632 11.5962C9.86872 11.799 10.1119 11.8807 10.3103 11.7761C10.5087 11.6747 10.5887 11.4261 10.4895 11.2234C10.3871 11.0206 10.1439 10.9356 9.94231 11.0402Z" fill="#0033AD"/>
</g>
</g>
</g>
<defs>
<clipPath id="clip0_256_3708">
<rect width="16" height="16" rx="8" fill="white"/>
</clipPath>
<clipPath id="clip1_256_3708">
<rect width="16" height="16" fill="white"/>
</clipPath>
<clipPath id="clip2_256_3708">
<rect width="16" height="16" fill="white"/>
</clipPath>
</defs>
</svg>
