<svg width="16" height="16" viewBox="0 0 16 16" fill="none" xmlns="http://www.w3.org/2000/svg">
<g clip-path="url(#clip0_256_2713)">
<g clip-path="url(#clip1_256_2713)">
<g clip-path="url(#clip2_256_2713)">
<path d="M0 0H16V16H0V0Z" fill="#43A047"/>
<path fill-rule="evenodd" clip-rule="evenodd" d="M5.71655 3.6525L7.55509 4.14486L7.96673 2.6125L8.886 2.86195L8.49036 4.33032L9.23945 4.53177L9.63436 3.04814L10.5696 3.29759L10.1667 4.78996C10.1667 4.78996 11.694 5.12814 12.054 6.37032C12.414 7.6125 11.2649 8.26559 10.9122 8.29032C10.9122 8.29032 12.2511 9.02414 11.7915 10.4678C11.3318 11.9114 9.92018 12.1696 8.43655 11.8387L8.03291 13.387L7.09764 13.1376L7.50927 11.6103L6.76673 11.411L6.35364 12.9449L5.42636 12.6954L5.83727 11.1681L3.95 10.659L4.42636 9.60305C4.42636 9.60305 4.958 9.7485 5.16018 9.7965C5.36236 9.8445 5.49036 9.63505 5.54709 9.42559C5.60382 9.21614 6.45836 5.74486 6.53909 5.45905C6.61982 5.17323 6.58709 4.94995 6.24818 4.86195C5.90927 4.77395 5.44818 4.6365 5.44818 4.6365L5.71655 3.6525ZM7.57109 8.24959L7.062 10.2736C7.062 10.2736 9.58564 11.1849 9.90855 9.90268C10.2315 8.6205 7.57109 8.24959 7.57109 8.24959ZM7.80527 7.28959L8.30491 5.43505C8.30491 5.43505 10.4664 5.82195 10.2002 6.85395C9.934 7.88595 8.65764 7.49032 7.80527 7.28959Z" fill="white"/>
</g>
</g>
</g>
<defs>
<clipPath id="clip0_256_2713">
<rect width="16" height="16" rx="8" fill="white"/>
</clipPath>
<clipPath id="clip1_256_2713">
<rect width="16" height="16" fill="white"/>
</clipPath>
<clipPath id="clip2_256_2713">
<rect width="16" height="16" fill="white"/>
</clipPath>
</defs>
</svg>
