<svg width="16" height="16" viewBox="0 0 16 16" fill="none" xmlns="http://www.w3.org/2000/svg">
<g clip-path="url(#clip0_256_3054)">
<g clip-path="url(#clip1_256_3054)">
<g clip-path="url(#clip2_256_3054)">
<path d="M0 0H16V16H0V0Z" fill="#0F8FF8"/>
<path fill-rule="evenodd" clip-rule="evenodd" d="M4 9.502L4.405 8.5H4.8335C4.8224 8.32856 4.81673 8.1568 4.8165 7.985C4.8165 7.761 4.826 7.553 4.8445 7.36H4L4.405 6.3585H5.042C5.635 4.453 6.972 3.5 9.0515 3.5C9.735 3.5 10.3845 3.5885 11 3.766V5.028C10.4208 4.76916 9.79294 4.63688 9.1585 4.64C7.912 4.64 7.1105 5.213 6.7535 6.359H10.465L10.06 7.3605H6.5115C6.49025 7.52545 6.4809 7.69171 6.4835 7.858C6.4835 8.0975 6.491 8.3115 6.506 8.5005H9.5975L9.1975 9.502H6.72C6.9865 10.1965 7.3115 10.6795 7.6945 10.952C8.077 11.224 8.6235 11.36 9.333 11.36C9.84 11.36 10.3955 11.2365 11 10.9895V12.176C10.4255 12.392 9.7425 12.5 8.95 12.5C6.8665 12.5 5.5485 11.5005 4.997 9.502H4Z" fill="#F2D45A"/>
</g>
</g>
</g>
<defs>
<clipPath id="clip0_256_3054">
<rect width="16" height="16" rx="8" fill="white"/>
</clipPath>
<clipPath id="clip1_256_3054">
<rect width="16" height="16" fill="white"/>
</clipPath>
<clipPath id="clip2_256_3054">
<rect width="16" height="16" fill="white"/>
</clipPath>
</defs>
</svg>
